<svg xmlns="http://www.w3.org/2000/svg" xmlns:xlink="http://www.w3.org/1999/xlink" viewBox="0 0 761.3 148.72"><defs><linearGradient id="a" x1="19.32" y1="43.89" x2="80.81" y2="43.89" gradientUnits="userSpaceOnUse"><stop offset="0.02" stop-color="#6e449a"/><stop offset="0.13" stop-color="#9e4499"/><stop offset="0.22" stop-color="#a54489"/><stop offset="0.34" stop-color="#b0446e"/><stop offset="0.53" stop-color="#f3eb4b"/><stop offset="0.94" stop-color="#2f7138"/></linearGradient><linearGradient id="b" x1="412.88" y1="352.42" x2="424.38" y2="352.42" gradientTransform="matrix(-0.71, 0.7, 0.7, 0.71, 133.83, -487.7)" xlink:href="#a"/></defs><title>Art-Larisse-Logo</title><polygon points="346.5 31.57 339.5 31.57 339.5 103.58 386.5 103.58 386.5 96.58 346.5 96.58 346.5 31.57" style="fill:#d5d5d5"/><path d="M423.12,31.58l-32.49,72h8.12l7.64-17H447l7.74,17h8.12l-32.49-72Zm20.88,48H409.42L426.71,40.4Z" style="fill:#d5d5d5"/><path d="M523.48,70.22a21.8,21.8,0,0,0,6.1-15.85c-.1-11-7.7-22.79-24.15-22.79H473.5v72h7v-26h18.14l24.32,26h10L508,76.64C514.37,76.21,519.68,74.05,523.48,70.22Zm-43-31.64h24.93c4.81,0,8.88,1.46,11.78,4.39A15.3,15.3,0,0,1,521.57,54c-.1,10.15-6,15.56-16.74,15.56H480.5Z" style="fill:#d5d5d5"/><rect x="542.5" y="31.58" width="8" height="72" style="fill:#d5d5d5"/><path d="M596.32,63l-.77-.15c-12.47-2.33-20.65-4.43-20.65-12.24,0-12.85,18.18-13.22,20.24-13.22,7.75.1,15.58,1.26,20.43,9.05l.54.87,6.25-3.69-.61-.92c-6.91-10.31-15.62-12.42-26.59-12.42-9.56,0-18.13,2.91-22.92,7.8a17,17,0,0,0-4.85,12.74c0,13.86,14.27,16.65,26.87,19.11,11,2.1,22.35,4.27,22.26,14,0,12.48-14.94,13.83-21.36,13.83-8.41,0-19-4.19-23.08-12.19l-.47-.93L564.91,88l.47.94c5.9,11.68,19.24,15.85,29.77,15.85,6.74,0,28.75-1.5,28.88-20.74C624,68.33,609.94,65.62,596.32,63Z" style="fill:#d5d5d5"/><path d="M664.09,63l-.77-.15c-12.47-2.33-20.65-4.43-20.65-12.24,0-12.85,18.18-13.22,20.24-13.22,7.75.1,15.58,1.26,20.43,9.05l.54.87,6.25-3.69-.61-.92c-6.91-10.31-15.62-12.42-26.59-12.42-9.56,0-18.13,2.91-22.92,7.8a17,17,0,0,0-4.85,12.74c0,13.86,14.27,16.65,26.87,19.11,11,2.1,22.35,4.27,22.26,14,0,12.48-14.94,13.83-21.36,13.83-8.41,0-19-4.19-23.08-12.19l-.47-.93L632.68,88l.47.94c5.9,11.68,19.24,15.85,29.77,15.85,6.74,0,28.75-1.5,28.88-20.74C691.8,68.33,677.71,65.62,664.09,63Z" style="fill:#d5d5d5"/><polygon points="712.5 96.58 712.5 70.58 753.5 70.58 753.5 63.58 712.5 63.58 712.5 38.58 755.5 38.58 755.5 31.57 705.5 31.57 705.5 103.58 757.5 103.58 757.5 96.58 712.5 96.58" style="fill:#d5d5d5"/><path d="M3.77,148.39V129.67H15.64v1.46H5.37v6.93H15.44v1.46H5.37v8.87Z" style="fill:#565656"/><path d="M22.92,148.39V129.67h1.6v18.72Z" style="fill:#565656"/><path d="M46.5,148.39,34.72,132.3v16.08h-1.6V129.67h1.63l11.73,15.85V129.67h1.6v18.72Z" style="fill:#565656"/><path d="M56.68,148.39V129.67H68.55v1.46H58.28v6.93H68.35v1.46H58.28v7.41H68.55v1.46Z" style="fill:#565656"/><path d="M101.21,148.39l-1.85-4.6H89.45l-1.85,4.6H85.75l7.66-18.72h2l7.66,18.72Zm-6.82-17L90,142.32h8.84Z" style="fill:#565656"/><path d="M120.73,148.39l-5.25-7.75h-4.12v7.75h-1.6V129.67h7c3.23,0,5.7,2,5.7,5.47a5.15,5.15,0,0,1-5.19,5.39l5.41,7.86Zm0-13.25a3.9,3.9,0,0,0-4.15-4h-5.25v8.05h5.25A3.92,3.92,0,0,0,120.76,135.14Z" style="fill:#565656"/><path d="M134.86,148.39V131.12h-6.12v-1.46h13.86v1.46h-6.12v17.26Z" style="fill:#565656"/><path d="M160.37,139a9.3,9.3,0,0,1,9.49-9.68,8.43,8.43,0,0,1,6.82,3.31l-1.35.87a6.8,6.8,0,0,0-5.47-2.72c-4.41,0-7.8,3.34-7.8,8.22s3.39,8.22,7.8,8.22a6.79,6.79,0,0,0,5.47-2.72l1.35.84a8.39,8.39,0,0,1-6.82,3.34A9.3,9.3,0,0,1,160.37,139Z" style="fill:#565656"/><path d="M183.87,148.39V129.67h1.6v17.26h9.06v1.46Z" style="fill:#565656"/><path d="M215.51,148.39l-1.85-4.6h-9.91l-1.85,4.6h-1.85l7.66-18.72h2l7.66,18.72Zm-6.82-17-4.41,10.94h8.84Z" style="fill:#565656"/><path d="M222.55,145.75l1-1.21a7.63,7.63,0,0,0,5.84,2.72c3.84,0,4.94-2.13,4.94-3.73,0-5.5-11.22-2.64-11.22-9.18,0-3.06,2.75-5,6.15-5a8,8,0,0,1,6.34,2.64l-1.07,1.18a6.7,6.7,0,0,0-5.36-2.36c-2.5,0-4.38,1.43-4.38,3.45,0,4.8,11.22,2.16,11.22,9.15,0,2.41-1.6,5.3-6.65,5.3A8.6,8.6,0,0,1,222.55,145.75Z" style="fill:#565656"/><path d="M242.79,145.75l1-1.21a7.63,7.63,0,0,0,5.84,2.72c3.85,0,4.94-2.13,4.94-3.73,0-5.5-11.22-2.64-11.22-9.18,0-3.06,2.75-5,6.14-5a8,8,0,0,1,6.34,2.64l-1.07,1.18a6.7,6.7,0,0,0-5.36-2.36c-2.5,0-4.38,1.43-4.38,3.45,0,4.8,11.22,2.16,11.22,9.15,0,2.41-1.6,5.3-6.65,5.3A8.6,8.6,0,0,1,242.79,145.75Z" style="fill:#565656"/><path d="M264.08,148.39V129.67H276v1.46H265.68v6.93h10.07v1.46H265.68v7.41H276v1.46Z" style="fill:#565656"/><path d="M282.82,145.75l1-1.21a7.63,7.63,0,0,0,5.84,2.72c3.84,0,4.94-2.13,4.94-3.73,0-5.5-11.22-2.64-11.22-9.18,0-3.06,2.75-5,6.15-5a8,8,0,0,1,6.34,2.64l-1.07,1.18a6.7,6.7,0,0,0-5.36-2.36c-2.5,0-4.38,1.43-4.38,3.45,0,4.8,11.22,2.16,11.22,9.15,0,2.41-1.6,5.3-6.65,5.3A8.6,8.6,0,0,1,282.82,145.75Z" style="fill:#565656"/><path d="M315.31,148.39V129.67h11.87v1.46H316.91v6.93H327v1.46H316.91v8.87Z" style="fill:#565656"/><path d="M333.76,139c0-5.47,3.59-9.68,9.09-9.68s9.09,4.21,9.09,9.68-3.62,9.68-9.09,9.68S333.76,144.51,333.76,139Zm16.5,0c0-4.77-2.92-8.22-7.41-8.22s-7.41,3.45-7.41,8.22,2.86,8.22,7.41,8.22S350.26,143.75,350.26,139Z" style="fill:#565656"/><path d="M370.82,148.39l-5.25-7.75h-4.12v7.75h-1.6V129.67h7c3.23,0,5.7,2,5.7,5.47a5.15,5.15,0,0,1-5.19,5.39l5.41,7.86Zm0-13.25a3.9,3.9,0,0,0-4.15-4h-5.25v8.05h5.25A3.92,3.92,0,0,0,370.85,135.14Z" style="fill:#565656"/><path d="M391,139a9.3,9.3,0,0,1,9.49-9.68,8.43,8.43,0,0,1,6.82,3.31l-1.35.87a6.8,6.8,0,0,0-5.47-2.72c-4.41,0-7.8,3.34-7.8,8.22s3.39,8.22,7.8,8.22a6.79,6.79,0,0,0,5.47-2.72l1.35.84a8.38,8.38,0,0,1-6.82,3.34A9.3,9.3,0,0,1,391,139Z" style="fill:#565656"/><path d="M427.94,148.39v-8.9H416.07v8.9h-1.6V129.67h1.6V138h11.87v-8.36h1.63v18.72Z" style="fill:#565656"/><path d="M438.15,148.39V129.67h1.6v18.72Z" style="fill:#565656"/><path d="M448.34,148.39V129.67h1.6v17.26H459v1.46Z" style="fill:#565656"/><path d="M466.43,148.39V129.67h6a9.36,9.36,0,1,1,0,18.72ZM480.18,139c0-4.38-2.81-7.91-7.77-7.91H468v15.8h4.38C477.34,146.92,480.18,143.42,480.18,139Z" style="fill:#565656"/><path d="M500.77,148.39l-5.25-7.75h-4.12v7.75h-1.6V129.67h7c3.23,0,5.7,2,5.7,5.47a5.15,5.15,0,0,1-5.19,5.39l5.41,7.86Zm0-13.25a3.9,3.9,0,0,0-4.15-4h-5.25v8.05h5.25A3.92,3.92,0,0,0,500.79,135.14Z" style="fill:#565656"/><path d="M510.41,148.39V129.67h11.87v1.46H512v6.93h10.07v1.46H512v7.41h10.27v1.46Z" style="fill:#565656"/><path d="M543.56,148.39,531.78,132.3v16.08h-1.6V129.67h1.63l11.73,15.85V129.67h1.6v18.72Z" style="fill:#565656"/><path d="M578.5,148.39l-1.85-4.6h-9.91l-1.85,4.6H563l7.66-18.72h2l7.66,18.72Zm-6.82-17-4.4,10.94h8.84Z" style="fill:#565656"/><path d="M600.44,148.39,588.65,132.3v16.08H587V129.67h1.63l11.73,15.85V129.67H602v18.72Z" style="fill:#565656"/><path d="M610.61,148.39V129.67h6a9.36,9.36,0,1,1,0,18.72ZM624.36,139c0-4.38-2.81-7.91-7.77-7.91h-4.38v15.8h4.38C621.53,146.92,624.36,143.42,624.36,139Z" style="fill:#565656"/><path d="M658.74,148.39l-1.85-4.6H647l-1.85,4.6h-1.85l7.66-18.72h2l7.66,18.72Zm-6.82-17-4.4,10.94h8.84Z" style="fill:#565656"/><path d="M667.29,148.39V129.67h6a9.36,9.36,0,1,1,0,18.72ZM681,139c0-4.38-2.81-7.91-7.77-7.91h-4.38v15.8h4.38C678.2,146.92,681,143.42,681,139Z" style="fill:#565656"/><path d="M690.65,141.2V129.67h1.63v11.51c0,3.79,2,6.09,5.67,6.09s5.67-2.3,5.67-6.09V129.67h1.63V141.2c0,4.63-2.47,7.52-7.3,7.52S690.65,145.8,690.65,141.2Z" style="fill:#565656"/><path d="M713.85,148.39V129.67h1.6v17.26h9.06v1.46Z" style="fill:#565656"/><path d="M733.9,148.39V131.12h-6.12v-1.46h13.86v1.46h-6.12v17.26Z" style="fill:#565656"/><path d="M747.81,145.75l1-1.21a7.63,7.63,0,0,0,5.84,2.72c3.84,0,4.94-2.13,4.94-3.73,0-5.5-11.22-2.64-11.22-9.18,0-3.06,2.75-5,6.15-5a8,8,0,0,1,6.34,2.64l-1.07,1.18a6.7,6.7,0,0,0-5.36-2.36c-2.5,0-4.38,1.43-4.38,3.45,0,4.8,11.22,2.16,11.22,9.15,0,2.41-1.6,5.3-6.65,5.3A8.6,8.6,0,0,1,747.81,145.75Z" style="fill:#565656"/><path d="M166.34,69.58A22.91,22.91,0,0,0,172.67,53c-.14-15.57-12.66-23.71-24.94-23.71H115v74H124V76.68H140.6l24.32,26.63H177L152,76.15A23.62,23.62,0,0,0,166.34,69.58ZM124,38h23.69a15.32,15.32,0,0,1,11.22,4.25,15,15,0,0,1,4.14,10.69c-.07,6.83-2.89,15-16,15H124Z" style="fill:#d5d5d5"/><polygon points="177.75 29.41 177.75 37.89 203.17 37.89 203.17 103.3 212.25 103.3 212.25 37.89 237.67 37.89 237.67 29.41 177.75 29.41" style="fill:#d5d5d5"/><path d="M258,76.58h-2.66l-2.07-5.23-1.76-5.25-1.74,5.3-2,5.18h-2.66L239,59.95h3.52l3.92,12,4-12h2l4.16,12,3.8-12H264Z" style="fill:#d5d5d5"/><path d="M270.71,76.58V59.95h3.11V76.58Z" style="fill:#d5d5d5"/><path d="M286.58,62.8H281.3V59.95H295V62.8h-5.27V76.58h-3.14Z" style="fill:#d5d5d5"/><path d="M313,76.6V69.88H304.8V76.6h-3.14V60h3.14v7H313V60h3.11V76.6Z" style="fill:#d5d5d5"/><rect x="3.77" y="78.11" width="93.82" height="6.74" style="fill:#d5d5d5"/><rect x="38.41" y="6.5" width="25.05" height="5.99" style="fill:#d5d5d5"/><polygon points="60.76 10.75 56.23 0.65 55.94 0 46.05 0 41.23 10.75 60.76 10.75" style="fill:#d5d5d5"/><polygon points="80.36 78.31 91.26 102.66 101.99 102.66 91.06 78.31 80.36 78.31" style="fill:#d5d5d5"/><polygon points="10.93 78.31 0 102.66 10.73 102.66 21.49 78.31 10.93 78.31" style="fill:#d5d5d5"/><rect x="3.77" y="16.14" width="93.82" height="56.07" style="fill:#fff;stroke:#d5d5d5;stroke-linecap:round;stroke-linejoin:round;stroke-width:3px"/><path d="M79.66,59.28s-13.4,5.63-11.82-6.75,7.66-23.87-9-28.37c-.56,0-13.06-.79-21.73,12S23.88,51.06,23,51.85s-5.4,3.83-3,7,7.54,1.69,12.61-3.71,13.85-23.53,23-23.31,8.78,4.28,7.09,12.39S61.54,62.32,64.8,63s9.68,1.58,13.85-1.8S79.66,59.28,79.66,59.28Z" style="fill:url(#a)"/><path d="M88.47,53.34s-.09-.61-1.26-1.39a2.6,2.6,0,0,0-1.86-.61L88.77,46l1.56,1,1.55,1Z" style="fill:#888787"/><path d="M77.83,60s3.29-.45,4.41-4.91,4.25-2.49,4.25-2.49,3.92,2.1-.46,5.73C82.74,61,77.83,60,77.83,60Z" style="fill:url(#b)"/><path d="M89.22,45.25l18.87-32.31s2.06-4.15,5-2.38.36,5.14.36,5.14L92.34,47.25Z" style="fill:#af7d58"/></svg>